<svg xmlns="http://www.w3.org/2000/svg" viewBox="0 0 200 200">
  <!-- Head -->
  <circle cx="100" cy="85" r="60" fill="#f2d2bd"/>
  
  <!-- Slick Hair -->
  <path d="M100 25c-20 0-45 10-45 30 0 15 20 20 45 20 25 0 45-5 45-20 0-20-25-30-45-30z" fill="#333"/>
  <path d="M55 55c10-15 30-20 45-20 15 0 35 5 45 20" stroke="#222" stroke-width="2" fill="none"/>
  
  <!-- Sunglasses -->
  <rect x="60" y="75" width="30" height="15" rx="5" fill="#333"/>
  <rect x="110" y="75" width="30" height="15" rx="5" fill="#333"/>
  <path d="M90 82.5h20" stroke="#333" stroke-width="3"/>
  
  <!-- Beard -->
  <path d="M70 95c0 25 15 40 30 40 15 0 30-15 30-40" fill="#5e3c10"/>
  <path d="M70 95c5 10 15 20 30 20 15 0 25-10 30-20" fill="#6d4520"/>
  
  <!-- Text -->
  <text x="100" y="170" font-family="Arial, sans-serif" font-size="16" font-weight="bold" text-anchor="middle">STYLE HAIR DO</text>
</svg>
